<?xml version="1.0" encoding="UTF-8"?>
<!DOCTYPE svg PUBLIC "-//W3C//DTD SVG 1.1//EN" "http://www.w3.org/Graphics/SVG/1.1/DTD/svg11.dtd">
<svg xmlns="http://www.w3.org/2000/svg" version="1.1" width="71px" height="62px" style="shape-rendering:geometricPrecision; text-rendering:geometricPrecision; image-rendering:optimizeQuality; fill-rule:evenodd; clip-rule:evenodd" xmlns:xlink="http://www.w3.org/1999/xlink">
<g><path style="opacity:0.968" fill="#fefefe" d="M 16.5,-0.5 C 28.8333,-0.5 41.1667,-0.5 53.5,-0.5C 55.7571,3.68288 57.7571,8.01621 59.5,12.5C 48.9865,12.1724 38.6532,12.5058 28.5,13.5C 21.4078,24.6795 15.0744,36.3462 9.5,48.5C 6.16667,43.1667 2.83333,37.8333 -0.5,32.5C -0.5,31.1667 -0.5,29.8333 -0.5,28.5C 5.40397,19.0332 11.0706,9.36651 16.5,-0.5 Z"/></g>
<g><path style="opacity:0.995" fill="#3744b2" d="M 28.5,13.5 C 38.8387,13.3335 49.172,13.5002 59.5,14C 57.5,17.6667 55.5,21.3333 53.5,25C 47.4725,25.1697 41.4725,25.6697 35.5,26.5C 34.1667,28.8333 32.8333,31.1667 31.5,33.5C 34.7683,34.487 38.1016,34.8204 41.5,34.5C 39.9341,38.801 37.9341,42.9677 35.5,47C 31.4592,47.1735 27.4592,47.6735 23.5,48.5C 21.2146,52.7353 19.2146,57.0686 17.5,61.5C 17.1667,61.5 16.8333,61.5 16.5,61.5C 13.8998,57.299 11.5665,52.9656 9.5,48.5C 15.0744,36.3462 21.4078,24.6795 28.5,13.5 Z"/></g>
<g><path style="opacity:0.973" fill="#fafafd" d="M 28.5,13.5 C 38.6532,12.5058 48.9865,12.1724 59.5,12.5C 63.1667,17.8333 66.8333,23.1667 70.5,28.5C 70.5,29.8333 70.5,31.1667 70.5,32.5C 64.08,41.6656 58.4134,51.3323 53.5,61.5C 41.5,61.5 29.5,61.5 17.5,61.5C 19.2146,57.0686 21.2146,52.7353 23.5,48.5C 27.4592,47.6735 31.4592,47.1735 35.5,47C 37.9341,42.9677 39.9341,38.801 41.5,34.5C 38.1016,34.8204 34.7683,34.487 31.5,33.5C 32.8333,31.1667 34.1667,28.8333 35.5,26.5C 41.4725,25.6697 47.4725,25.1697 53.5,25C 55.5,21.3333 57.5,17.6667 59.5,14C 49.172,13.5002 38.8387,13.3335 28.5,13.5 Z"/></g>
</svg>
